# xmcd
#
# Track frame offsets:
#	150
#	11126
#	22585
#	40637
#	62126
#	83120
#	99015
#	114109
#	126246
#	143249
#	157295
#	172488
#	189642
#	213929
#
# Disc length: 3022 seconds
#
# Revision: 1
# Processed by: cddbd v1.4PL0 Copyright (c) Steve Scherf et al.
# Submitted via: audiograbber 1.82.00
#
DISCID=b70bcc0e
DTITLE=Doc Jenkins - Old Heartbreaker
DYEAR=1997
DGENRE=
TTITLE0=Old Heartbreaker
TTITLE1=It Takes A Strong Man
TTITLE2=Unconditional Love
TTITLE3=This Waltz
TTITLE4=Country Road In My Mind
TTITLE5=Then You Took My Hand
TTITLE6=Gawking Around
TTITLE7=Thirty Years
TTITLE8=June In December
TTITLE9=Someday Waltz
TTITLE10=That Image Of Beauty
TTITLE11=This Time
TTITLE12=Desperation
TTITLE13=The Guitar Pickers' Song
EXTD=
EXTT0=
EXTT1=
EXTT2=
EXTT3=
EXTT4=
EXTT5=
EXTT6=
EXTT7=
EXTT8=
EXTT9=
EXTT10=
EXTT11=
EXTT12=
EXTT13=
PLAYORDER=
